<mxfile host="Electron" modified="2024-03-23T18:29:25.807Z" agent="Mozilla/5.0 (Windows NT 10.0; Win64; x64) AppleWebKit/537.36 (KHTML, like Gecko) draw.io/21.4.0 Chrome/112.0.5615.204 Electron/24.5.1 Safari/537.36" etag="GuCsP1LLfzVcLg6pTbcP" version="21.4.0" type="device" pages="3">
  <diagram id="hDycJ88SvtJFa6JFhrfH" name="Chart Classes Scopes">
    <mxGraphModel dx="1549" dy="920" grid="0" gridSize="10" guides="1" tooltips="1" connect="1" arrows="1" fold="1" page="0" pageScale="1" pageWidth="827" pageHeight="1169" math="0" shadow="0">
      <root>
        <mxCell id="0" />
        <mxCell id="1" parent="0" />
        <mxCell id="wjGSmoWpYXKsBpEZAUal-4" value="" style="group;fontSize=17;" parent="1" vertex="1" connectable="0">
          <mxGeometry x="192" y="122" width="1291" height="564" as="geometry" />
        </mxCell>
        <mxCell id="wjGSmoWpYXKsBpEZAUal-5" value="CHART AREA" style="rounded=0;whiteSpace=wrap;html=1;fillColor=#0050ef;fontColor=#ffffff;strokeColor=#001DBC;" parent="wjGSmoWpYXKsBpEZAUal-4" vertex="1">
          <mxGeometry width="1315" height="585" as="geometry" />
        </mxCell>
        <mxCell id="wjGSmoWpYXKsBpEZAUal-10" value="Workspace Manager" style="rounded=1;whiteSpace=wrap;html=1;fillColor=#a20025;fontColor=#ffffff;strokeColor=#6F0000;" parent="wjGSmoWpYXKsBpEZAUal-4" vertex="1">
          <mxGeometry x="122" y="370" width="531" height="129" as="geometry" />
        </mxCell>
        <mxCell id="wjGSmoWpYXKsBpEZAUal-14" value="" style="group" parent="wjGSmoWpYXKsBpEZAUal-4" vertex="1" connectable="0">
          <mxGeometry x="19" y="11" width="462" height="253" as="geometry" />
        </mxCell>
        <mxCell id="wjGSmoWpYXKsBpEZAUal-1" value="&lt;font style=&quot;font-size: 28px;&quot; color=&quot;#000000&quot;&gt;CHART&lt;/font&gt;" style="rounded=1;whiteSpace=wrap;html=1;fillColor=#60a917;fontColor=#ffffff;strokeColor=#2D7600;" parent="wjGSmoWpYXKsBpEZAUal-14" vertex="1">
          <mxGeometry width="462" height="253" as="geometry" />
        </mxCell>
        <mxCell id="wjGSmoWpYXKsBpEZAUal-2" value="Indicator" style="rounded=0;whiteSpace=wrap;html=1;fillColor=#0050ef;fontColor=#ffffff;strokeColor=#001DBC;" parent="wjGSmoWpYXKsBpEZAUal-14" vertex="1">
          <mxGeometry x="330.5365853658536" y="193.75316455696205" width="90.14634146341463" height="48.037974683544306" as="geometry" />
        </mxCell>
        <mxCell id="wjGSmoWpYXKsBpEZAUal-3" value="Market Data Instance&lt;br&gt;&lt;br&gt;StartTime , ET,BarHigh,Low,Open,Close,Indicator" style="rounded=1;whiteSpace=wrap;html=1;fillColor=#d80073;fontColor=#ffffff;strokeColor=#A50040;" parent="wjGSmoWpYXKsBpEZAUal-14" vertex="1">
          <mxGeometry x="31.55" y="161" width="253.16" height="83.99" as="geometry" />
        </mxCell>
        <mxCell id="wjGSmoWpYXKsBpEZAUal-11" value="Depth of Market" style="rounded=0;whiteSpace=wrap;html=1;fillColor=#fa6800;fontColor=#000000;strokeColor=#C73500;" parent="wjGSmoWpYXKsBpEZAUal-14" vertex="1">
          <mxGeometry x="315.61" y="125" width="120" height="60" as="geometry" />
        </mxCell>
        <mxCell id="wjGSmoWpYXKsBpEZAUal-12" value="Symbol Events tracker" style="rounded=1;whiteSpace=wrap;html=1;fillColor=#647687;fontColor=#ffffff;strokeColor=#314354;" parent="wjGSmoWpYXKsBpEZAUal-14" vertex="1">
          <mxGeometry x="322" y="48" width="120" height="60" as="geometry" />
        </mxCell>
      </root>
    </mxGraphModel>
  </diagram>
  <diagram name="Chart Class Hierarchy" id="kw0OghmjQcKfQ3Gxc1fl">
    <mxGraphModel dx="2749" dy="920" grid="0" gridSize="10" guides="1" tooltips="1" connect="1" arrows="1" fold="1" page="0" pageScale="1" pageWidth="827" pageHeight="1169" math="0" shadow="0">
      <root>
        <mxCell id="0" />
        <mxCell id="1" parent="0" />
        <mxCell id="UJ0VAgdAeNQ9g51mtX7u-16" style="edgeStyle=orthogonalEdgeStyle;rounded=0;orthogonalLoop=1;jettySize=auto;html=1;exitX=0.25;exitY=1;exitDx=0;exitDy=0;" parent="1" source="UJ0VAgdAeNQ9g51mtX7u-1" target="UJ0VAgdAeNQ9g51mtX7u-2" edge="1">
          <mxGeometry relative="1" as="geometry" />
        </mxCell>
        <mxCell id="UJ0VAgdAeNQ9g51mtX7u-17" style="edgeStyle=orthogonalEdgeStyle;rounded=0;orthogonalLoop=1;jettySize=auto;html=1;exitX=0.75;exitY=1;exitDx=0;exitDy=0;" parent="1" source="UJ0VAgdAeNQ9g51mtX7u-1" target="UJ0VAgdAeNQ9g51mtX7u-3" edge="1">
          <mxGeometry relative="1" as="geometry" />
        </mxCell>
        <mxCell id="UJ0VAgdAeNQ9g51mtX7u-1" value="CHART" style="rounded=0;whiteSpace=wrap;html=1;fillColor=#60a917;fontColor=#ffffff;strokeColor=#2D7600;" parent="1" vertex="1">
          <mxGeometry x="222" y="18" width="350" height="152" as="geometry" />
        </mxCell>
        <mxCell id="UJ0VAgdAeNQ9g51mtX7u-26" style="edgeStyle=orthogonalEdgeStyle;rounded=0;orthogonalLoop=1;jettySize=auto;html=1;exitX=0.5;exitY=1;exitDx=0;exitDy=0;" parent="1" source="UJ0VAgdAeNQ9g51mtX7u-2" target="UJ0VAgdAeNQ9g51mtX7u-24" edge="1">
          <mxGeometry relative="1" as="geometry" />
        </mxCell>
        <mxCell id="UJ0VAgdAeNQ9g51mtX7u-27" style="edgeStyle=orthogonalEdgeStyle;rounded=0;orthogonalLoop=1;jettySize=auto;html=1;exitX=0;exitY=0.5;exitDx=0;exitDy=0;" parent="1" source="UJ0VAgdAeNQ9g51mtX7u-2" target="UJ0VAgdAeNQ9g51mtX7u-22" edge="1">
          <mxGeometry relative="1" as="geometry" />
        </mxCell>
        <mxCell id="UJ0VAgdAeNQ9g51mtX7u-2" value="XY Chart" style="rounded=0;whiteSpace=wrap;html=1;fillColor=#fa6800;fontColor=#000000;strokeColor=#C73500;" parent="1" vertex="1">
          <mxGeometry x="-98" y="334" width="460" height="60" as="geometry" />
        </mxCell>
        <mxCell id="UJ0VAgdAeNQ9g51mtX7u-25" style="edgeStyle=orthogonalEdgeStyle;rounded=0;orthogonalLoop=1;jettySize=auto;html=1;exitX=1;exitY=0.75;exitDx=0;exitDy=0;" parent="1" source="UJ0VAgdAeNQ9g51mtX7u-3" target="UJ0VAgdAeNQ9g51mtX7u-23" edge="1">
          <mxGeometry relative="1" as="geometry" />
        </mxCell>
        <mxCell id="UJ0VAgdAeNQ9g51mtX7u-46" style="edgeStyle=orthogonalEdgeStyle;rounded=0;orthogonalLoop=1;jettySize=auto;html=1;exitX=0.75;exitY=1;exitDx=0;exitDy=0;" parent="1" source="UJ0VAgdAeNQ9g51mtX7u-3" target="UJ0VAgdAeNQ9g51mtX7u-45" edge="1">
          <mxGeometry relative="1" as="geometry" />
        </mxCell>
        <mxCell id="UJ0VAgdAeNQ9g51mtX7u-3" value="Non_XY_Chart" style="rounded=0;whiteSpace=wrap;html=1;fillColor=#fa6800;fontColor=#000000;strokeColor=#C73500;" parent="1" vertex="1">
          <mxGeometry x="407" y="334" width="634" height="60" as="geometry" />
        </mxCell>
        <mxCell id="UJ0VAgdAeNQ9g51mtX7u-18" style="rounded=0;orthogonalLoop=1;jettySize=auto;html=1;exitX=0.5;exitY=1;exitDx=0;exitDy=0;entryX=0.25;entryY=0;entryDx=0;entryDy=0;" parent="1" source="UJ0VAgdAeNQ9g51mtX7u-6" target="UJ0VAgdAeNQ9g51mtX7u-2" edge="1">
          <mxGeometry relative="1" as="geometry" />
        </mxCell>
        <mxCell id="UJ0VAgdAeNQ9g51mtX7u-19" style="rounded=0;orthogonalLoop=1;jettySize=auto;html=1;exitX=0.75;exitY=1;exitDx=0;exitDy=0;entryX=0.25;entryY=0;entryDx=0;entryDy=0;" parent="1" source="UJ0VAgdAeNQ9g51mtX7u-6" target="UJ0VAgdAeNQ9g51mtX7u-3" edge="1">
          <mxGeometry relative="1" as="geometry" />
        </mxCell>
        <mxCell id="UJ0VAgdAeNQ9g51mtX7u-6" value="REAL TIME" style="rounded=0;whiteSpace=wrap;html=1;fillColor=#f0a30a;fontColor=#000000;strokeColor=#BD7000;" parent="1" vertex="1">
          <mxGeometry x="-300" y="104" width="120" height="60" as="geometry" />
        </mxCell>
        <mxCell id="UJ0VAgdAeNQ9g51mtX7u-20" style="rounded=0;orthogonalLoop=1;jettySize=auto;html=1;exitX=0.25;exitY=1;exitDx=0;exitDy=0;entryX=0.75;entryY=0;entryDx=0;entryDy=0;" parent="1" source="UJ0VAgdAeNQ9g51mtX7u-8" target="UJ0VAgdAeNQ9g51mtX7u-2" edge="1">
          <mxGeometry relative="1" as="geometry" />
        </mxCell>
        <mxCell id="UJ0VAgdAeNQ9g51mtX7u-21" style="rounded=0;orthogonalLoop=1;jettySize=auto;html=1;exitX=0.75;exitY=1;exitDx=0;exitDy=0;entryX=0.75;entryY=0;entryDx=0;entryDy=0;" parent="1" source="UJ0VAgdAeNQ9g51mtX7u-8" target="UJ0VAgdAeNQ9g51mtX7u-3" edge="1">
          <mxGeometry relative="1" as="geometry" />
        </mxCell>
        <mxCell id="UJ0VAgdAeNQ9g51mtX7u-8" value="NON REALTIME" style="rounded=0;whiteSpace=wrap;html=1;fillColor=#f0a30a;fontColor=#000000;strokeColor=#BD7000;" parent="1" vertex="1">
          <mxGeometry x="1021" y="92" width="120" height="60" as="geometry" />
        </mxCell>
        <mxCell id="UJ0VAgdAeNQ9g51mtX7u-31" style="edgeStyle=orthogonalEdgeStyle;rounded=0;orthogonalLoop=1;jettySize=auto;html=1;exitX=0.15;exitY=1;exitDx=0;exitDy=0;exitPerimeter=0;" parent="1" source="UJ0VAgdAeNQ9g51mtX7u-22" target="UJ0VAgdAeNQ9g51mtX7u-28" edge="1">
          <mxGeometry relative="1" as="geometry" />
        </mxCell>
        <mxCell id="UJ0VAgdAeNQ9g51mtX7u-32" style="edgeStyle=orthogonalEdgeStyle;rounded=0;orthogonalLoop=1;jettySize=auto;html=1;exitX=0.33;exitY=1;exitDx=0;exitDy=0;exitPerimeter=0;" parent="1" source="UJ0VAgdAeNQ9g51mtX7u-22" target="UJ0VAgdAeNQ9g51mtX7u-29" edge="1">
          <mxGeometry relative="1" as="geometry" />
        </mxCell>
        <mxCell id="UJ0VAgdAeNQ9g51mtX7u-33" style="edgeStyle=orthogonalEdgeStyle;rounded=0;orthogonalLoop=1;jettySize=auto;html=1;exitX=0.5;exitY=1;exitDx=0;exitDy=0;exitPerimeter=0;" parent="1" source="UJ0VAgdAeNQ9g51mtX7u-22" target="UJ0VAgdAeNQ9g51mtX7u-30" edge="1">
          <mxGeometry relative="1" as="geometry" />
        </mxCell>
        <mxCell id="UJ0VAgdAeNQ9g51mtX7u-35" style="edgeStyle=orthogonalEdgeStyle;rounded=0;orthogonalLoop=1;jettySize=auto;html=1;exitX=0.67;exitY=1;exitDx=0;exitDy=0;exitPerimeter=0;" parent="1" source="UJ0VAgdAeNQ9g51mtX7u-22" target="UJ0VAgdAeNQ9g51mtX7u-34" edge="1">
          <mxGeometry relative="1" as="geometry" />
        </mxCell>
        <mxCell id="UJ0VAgdAeNQ9g51mtX7u-22" value="Stock Chart" style="rounded=0;whiteSpace=wrap;html=1;fillColor=#d80073;fontColor=#ffffff;strokeColor=#A50040;points=[[0,0,0,0,0],[0,0.25,0,0,0],[0,0.5,0,0,0],[0,0.75,0,0,0],[0,1,0,0,0],[0.15,1,0,0,0],[0.25,0,0,0,0],[0.33,1,0,0,0],[0.5,0,0,0,0],[0.5,1,0,0,0],[0.67,1,0,0,0],[0.75,0,0,0,0],[0.85,1,0,0,0],[1,0,0,0,0],[1,0.25,0,0,0],[1,0.5,0,0,0],[1,0.75,0,0,0],[1,1,0,0,0]];" parent="1" vertex="1">
          <mxGeometry x="-866" y="545" width="744" height="60" as="geometry" />
        </mxCell>
        <mxCell id="UJ0VAgdAeNQ9g51mtX7u-23" value="PIE Chart" style="rounded=0;whiteSpace=wrap;html=1;fillColor=#d80073;fontColor=#ffffff;strokeColor=#A50040;" parent="1" vertex="1">
          <mxGeometry x="1208" y="450" width="120" height="60" as="geometry" />
        </mxCell>
        <mxCell id="UJ0VAgdAeNQ9g51mtX7u-43" style="edgeStyle=orthogonalEdgeStyle;rounded=0;orthogonalLoop=1;jettySize=auto;html=1;exitX=0.5;exitY=1;exitDx=0;exitDy=0;" parent="1" source="UJ0VAgdAeNQ9g51mtX7u-24" target="UJ0VAgdAeNQ9g51mtX7u-42" edge="1">
          <mxGeometry relative="1" as="geometry" />
        </mxCell>
        <mxCell id="UJ0VAgdAeNQ9g51mtX7u-24" value="LINE CHART" style="rounded=0;whiteSpace=wrap;html=1;fillColor=#d80073;fontColor=#ffffff;strokeColor=#A50040;" parent="1" vertex="1">
          <mxGeometry x="72" y="463" width="120" height="60" as="geometry" />
        </mxCell>
        <mxCell id="UJ0VAgdAeNQ9g51mtX7u-53" style="edgeStyle=orthogonalEdgeStyle;rounded=0;orthogonalLoop=1;jettySize=auto;html=1;exitX=0.5;exitY=1;exitDx=0;exitDy=0;" parent="1" source="UJ0VAgdAeNQ9g51mtX7u-28" target="UJ0VAgdAeNQ9g51mtX7u-52" edge="1">
          <mxGeometry relative="1" as="geometry" />
        </mxCell>
        <mxCell id="UJ0VAgdAeNQ9g51mtX7u-28" value="Candle Stick Chart" style="rounded=1;whiteSpace=wrap;html=1;fillColor=#1ba1e2;fontColor=#ffffff;strokeColor=#006EAF;" parent="1" vertex="1">
          <mxGeometry x="-866" y="648" width="120" height="60" as="geometry" />
        </mxCell>
        <mxCell id="UJ0VAgdAeNQ9g51mtX7u-37" style="edgeStyle=orthogonalEdgeStyle;rounded=0;orthogonalLoop=1;jettySize=auto;html=1;exitX=0.5;exitY=1;exitDx=0;exitDy=0;" parent="1" source="UJ0VAgdAeNQ9g51mtX7u-29" target="UJ0VAgdAeNQ9g51mtX7u-36" edge="1">
          <mxGeometry relative="1" as="geometry" />
        </mxCell>
        <mxCell id="UJ0VAgdAeNQ9g51mtX7u-29" value="Renko Chart" style="rounded=1;whiteSpace=wrap;html=1;fillColor=#1ba1e2;fontColor=#ffffff;strokeColor=#006EAF;" parent="1" vertex="1">
          <mxGeometry x="-718" y="648" width="120" height="60" as="geometry" />
        </mxCell>
        <mxCell id="UJ0VAgdAeNQ9g51mtX7u-39" style="edgeStyle=orthogonalEdgeStyle;rounded=0;orthogonalLoop=1;jettySize=auto;html=1;exitX=0.5;exitY=1;exitDx=0;exitDy=0;" parent="1" source="UJ0VAgdAeNQ9g51mtX7u-30" target="UJ0VAgdAeNQ9g51mtX7u-38" edge="1">
          <mxGeometry relative="1" as="geometry" />
        </mxCell>
        <mxCell id="UJ0VAgdAeNQ9g51mtX7u-30" value="Median Renko" style="rounded=1;whiteSpace=wrap;html=1;fillColor=#1ba1e2;fontColor=#ffffff;strokeColor=#006EAF;" parent="1" vertex="1">
          <mxGeometry x="-569" y="648" width="120" height="60" as="geometry" />
        </mxCell>
        <mxCell id="UJ0VAgdAeNQ9g51mtX7u-41" style="edgeStyle=orthogonalEdgeStyle;rounded=0;orthogonalLoop=1;jettySize=auto;html=1;exitX=0.5;exitY=1;exitDx=0;exitDy=0;" parent="1" source="UJ0VAgdAeNQ9g51mtX7u-34" target="UJ0VAgdAeNQ9g51mtX7u-40" edge="1">
          <mxGeometry relative="1" as="geometry" />
        </mxCell>
        <mxCell id="UJ0VAgdAeNQ9g51mtX7u-34" value="Range Bar Chart" style="rounded=1;whiteSpace=wrap;html=1;fillColor=#1ba1e2;fontColor=#ffffff;strokeColor=#006EAF;" parent="1" vertex="1">
          <mxGeometry x="-413" y="648" width="120" height="60" as="geometry" />
        </mxCell>
        <mxCell id="UJ0VAgdAeNQ9g51mtX7u-36" value="Time Thickness Renko" style="rounded=0;whiteSpace=wrap;html=1;fillColor=#6a00ff;fontColor=#ffffff;strokeColor=#3700CC;" parent="1" vertex="1">
          <mxGeometry x="-718" y="741" width="120" height="60" as="geometry" />
        </mxCell>
        <mxCell id="UJ0VAgdAeNQ9g51mtX7u-38" value="Time Thickness Median Renko" style="rounded=0;whiteSpace=wrap;html=1;fillColor=#6a00ff;fontColor=#ffffff;strokeColor=#3700CC;" parent="1" vertex="1">
          <mxGeometry x="-575" y="741" width="120" height="60" as="geometry" />
        </mxCell>
        <mxCell id="UJ0VAgdAeNQ9g51mtX7u-40" value="Time Thickness Range Bar" style="rounded=0;whiteSpace=wrap;html=1;fillColor=#6a00ff;fontColor=#ffffff;strokeColor=#3700CC;" parent="1" vertex="1">
          <mxGeometry x="-416" y="743" width="120" height="60" as="geometry" />
        </mxCell>
        <mxCell id="UJ0VAgdAeNQ9g51mtX7u-42" value="Spread Chart" style="rounded=1;whiteSpace=wrap;html=1;fillColor=#1ba1e2;fontColor=#ffffff;strokeColor=#006EAF;" parent="1" vertex="1">
          <mxGeometry x="58" y="609" width="120" height="60" as="geometry" />
        </mxCell>
        <mxCell id="UJ0VAgdAeNQ9g51mtX7u-45" value="Gauge / Meter&amp;nbsp; Chart" style="rounded=0;whiteSpace=wrap;html=1;fillColor=#d80073;fontColor=#ffffff;strokeColor=#A50040;" parent="1" vertex="1">
          <mxGeometry x="807" y="498" width="120" height="60" as="geometry" />
        </mxCell>
        <mxCell id="UJ0VAgdAeNQ9g51mtX7u-50" style="edgeStyle=orthogonalEdgeStyle;rounded=0;orthogonalLoop=1;jettySize=auto;html=1;exitX=1;exitY=0.75;exitDx=0;exitDy=0;entryX=0;entryY=0.75;entryDx=0;entryDy=0;entryPerimeter=0;" parent="1" source="UJ0VAgdAeNQ9g51mtX7u-47" target="UJ0VAgdAeNQ9g51mtX7u-22" edge="1">
          <mxGeometry relative="1" as="geometry" />
        </mxCell>
        <mxCell id="UJ0VAgdAeNQ9g51mtX7u-47" value="Interface Chart Time Scales&lt;br&gt;list&amp;lt;ticks&amp;gt;&lt;br&gt;list&amp;lt;seconds&amp;gt;&lt;br&gt;list &amp;lt;minutes&amp;gt;&lt;br&gt;list &amp;lt;hrs&amp;gt;&lt;br&gt;list &amp;lt;days&amp;gt;&lt;br&gt;list &amp;lt;weeks&amp;gt;&lt;br&gt;list&amp;lt;months&amp;gt;&lt;br&gt;list&amp;lt;years&amp;gt;&lt;br&gt;" style="rounded=0;whiteSpace=wrap;html=1;fillColor=#76608a;fontColor=#ffffff;strokeColor=#432D57;" parent="1" vertex="1">
          <mxGeometry x="-1199" y="498" width="120" height="165" as="geometry" />
        </mxCell>
        <mxCell id="UJ0VAgdAeNQ9g51mtX7u-49" style="edgeStyle=orthogonalEdgeStyle;rounded=0;orthogonalLoop=1;jettySize=auto;html=1;exitX=1;exitY=0.5;exitDx=0;exitDy=0;entryX=0;entryY=0.25;entryDx=0;entryDy=0;entryPerimeter=0;" parent="1" source="UJ0VAgdAeNQ9g51mtX7u-48" target="UJ0VAgdAeNQ9g51mtX7u-22" edge="1">
          <mxGeometry relative="1" as="geometry" />
        </mxCell>
        <mxCell id="UJ0VAgdAeNQ9g51mtX7u-48" value="Interface Renko and Range Periods&lt;br&gt;&lt;br&gt;list&amp;lt;pips&amp;gt;&lt;br&gt;" style="rounded=0;whiteSpace=wrap;html=1;fillColor=#76608a;fontColor=#ffffff;strokeColor=#432D57;" parent="1" vertex="1">
          <mxGeometry x="-1045" y="308" width="120" height="165" as="geometry" />
        </mxCell>
        <mxCell id="UJ0VAgdAeNQ9g51mtX7u-52" value="Tick Chart" style="rounded=0;whiteSpace=wrap;html=1;fillColor=#6a00ff;fontColor=#ffffff;strokeColor=#3700CC;" parent="1" vertex="1">
          <mxGeometry x="-866" y="738" width="120" height="60" as="geometry" />
        </mxCell>
      </root>
    </mxGraphModel>
  </diagram>
  <diagram id="0A9jgwyKui1bZFMNao_J" name="Page-3">
    <mxGraphModel dx="1084" dy="644" grid="1" gridSize="10" guides="1" tooltips="1" connect="1" arrows="1" fold="1" page="1" pageScale="1" pageWidth="827" pageHeight="1169" math="0" shadow="0">
      <root>
        <mxCell id="0" />
        <mxCell id="1" parent="0" />
      </root>
    </mxGraphModel>
  </diagram>
</mxfile>
